<svg xmlns="http://www.w3.org/2000/svg" xmlns:xlink="http://www.w3.org/1999/xlink" width="250" zoomAndPan="magnify" viewBox="0 0 187.5 74.999997" height="100" preserveAspectRatio="xMidYMid meet" version="1.0"><defs><g/><clipPath id="fa8d7b9504"><path d="M 81.441406 18.734375 L 113.691406 18.734375 L 113.691406 56.234375 L 81.441406 56.234375 Z M 81.441406 18.734375 " clip-rule="nonzero"/></clipPath></defs><g clip-path="url(#fa8d7b9504)"><path fill="#1bb7cc" d="M 106.464844 38.460938 L 102.855469 40.5625 L 99.242188 42.660156 L 99.242188 38.460938 L 102.855469 36.363281 L 106.464844 34.265625 L 110.074219 32.160156 L 110.074219 44.761719 L 97.566406 52.039062 L 92.277344 48.960938 L 92.277344 34.40625 L 95.34375 32.625 L 95.886719 32.308594 L 97.566406 31.332031 L 99.242188 30.351562 L 101.175781 29.230469 L 108.394531 25.035156 L 105.621094 23.421875 L 104.785156 22.929688 L 97.566406 18.734375 L 89.503906 23.421875 L 81.445312 28.113281 L 81.445312 46.863281 L 85.058594 48.960938 L 85.058594 30.210938 L 97.566406 22.929688 L 101.175781 25.035156 L 99.242188 26.15625 L 97.566406 27.132812 L 95.886719 28.113281 L 93.539062 29.476562 L 88.667969 32.308594 L 88.667969 51.058594 L 89.503906 51.546875 L 92.277344 53.15625 L 97.566406 56.234375 L 105.621094 51.546875 L 113.683594 46.863281 L 113.683594 28.113281 L 112.003906 27.132812 L 108.394531 29.230469 L 104.785156 31.332031 L 101.175781 33.429688 L 99.242188 34.546875 L 97.566406 35.527344 L 95.886719 36.503906 L 95.886719 46.863281 L 97.566406 47.839844 L 99.242188 46.863281 L 106.464844 42.660156 Z M 106.464844 38.460938 " fill-opacity="1" fill-rule="evenodd"/></g><g fill="#ffffff" fill-opacity="1"><g transform="translate(1.871853, 46.495581)"><g><path d="M 9.882812 0 L 13.886719 0 L 13.886719 -14.371094 L 22.78125 -14.371094 L 22.78125 -17.738281 L 0.988281 -17.738281 L 0.988281 -14.371094 L 9.882812 -14.371094 Z M 9.882812 0 "/></g></g></g><g fill="#ffffff" fill-opacity="1"><g transform="translate(25.639273, 46.495581)"><g><path d="M 12.140625 0.253906 C 19.917969 0.253906 23.289062 -3.117188 23.289062 -8.894531 C 23.289062 -14.648438 19.917969 -17.992188 12.140625 -17.992188 C 4.332031 -17.992188 0.988281 -14.671875 0.988281 -8.894531 C 0.988281 -3.09375 4.332031 0.253906 12.140625 0.253906 Z M 12.140625 -3.117188 C 7.148438 -3.117188 4.992188 -4.789062 4.992188 -8.894531 C 4.992188 -12.976562 7.121094 -14.621094 12.140625 -14.621094 C 17.15625 -14.621094 19.285156 -12.949219 19.285156 -8.894531 C 19.285156 -4.816406 17.132812 -3.117188 12.140625 -3.117188 Z M 12.140625 -3.117188 "/></g></g></g><g fill="#ffffff" fill-opacity="1"><g transform="translate(49.913459, 46.495581)"><g><path d="M 1.242188 0 L 5.246094 0 L 5.246094 -13 L 13.332031 0 L 16.347656 0 L 24.40625 -13 L 24.40625 0 L 28.410156 0 L 28.410156 -17.738281 L 22.78125 -17.738281 L 14.824219 -4.636719 L 6.867188 -17.738281 L 1.242188 -17.738281 Z M 1.242188 0 "/></g></g></g><g fill="#ffffff" fill-opacity="1"><g transform="translate(115.545623, 46.495581)"><g><path d="M 1.242188 0 L 14.066406 0 C 18.703125 0 22.734375 -2.839844 22.734375 -8.871094 C 22.734375 -14.902344 18.703125 -17.738281 14.066406 -17.738281 L 1.242188 -17.738281 Z M 5.246094 -3.371094 L 5.246094 -14.371094 L 12.394531 -14.371094 C 16.398438 -14.371094 18.726562 -13.457031 18.726562 -8.871094 C 18.726562 -4.28125 16.398438 -3.371094 12.394531 -3.371094 Z M 5.246094 -3.371094 "/></g></g></g><g fill="#ffffff" fill-opacity="1"><g transform="translate(139.262364, 46.495581)"><g><path d="M 1.242188 0 L 19.996094 0 L 19.996094 -3.21875 L 5.246094 -3.21875 L 5.246094 -7.347656 L 19.996094 -7.347656 L 19.996094 -10.390625 L 5.246094 -10.390625 L 5.246094 -14.519531 L 19.996094 -14.519531 L 19.996094 -17.738281 L 1.242188 -17.738281 Z M 1.242188 0 "/></g></g></g><g fill="#ffffff" fill-opacity="1"><g transform="translate(160.242557, 46.495581)"><g><path d="M 10.617188 0 L 15.863281 0 L 25.46875 -17.738281 L 20.933594 -17.738281 L 13.230469 -3.292969 L 5.523438 -17.738281 L 0.988281 -17.738281 Z M 10.617188 0 "/></g></g></g></svg>