<svg xmlns="http://www.w3.org/2000/svg" xmlns:xlink="http://www.w3.org/1999/xlink" width="1080" zoomAndPan="magnify" viewBox="0 0 810 809.999993" height="1080" preserveAspectRatio="xMidYMid meet" version="1.0"><path stroke-linecap="butt" transform="matrix(-4.519307, -0.00485996, 0.00485996, -4.519307, 437.290998, 808.510059)" fill="none" stroke-linejoin="miter" d="M 5.718188 7.330062 L 5.718265 10.61631 L 12.305454 10.616141 L 12.305507 13.88078 L 5.717454 13.88095 L 5.717772 18.999614 L 1.494572 18.999834 L 1.494939 4.069965 L 13.200793 4.070342 L 13.200841 7.329795 Z M 5.718188 7.330062 " stroke="#000000" stroke-width="0.706667" stroke-opacity="1" stroke-miterlimit="4"/><path stroke-linecap="butt" transform="matrix(-4.435098, -0.868371, 0.868371, -4.435098, 364.126713, 807.803235)" fill="none" stroke-linejoin="miter" d="M 8.019354 15.031819 L 5.717868 15.03149 L 5.718082 19.000146 L 1.494819 19.000008 L 1.494884 4.070259 L 8.316286 4.069891 C 9.670022 4.069945 10.843847 4.293706 11.836911 4.741342 C 12.832687 5.189328 13.600195 5.829974 14.138588 6.663448 C 14.67971 7.492864 14.950367 8.470358 14.950393 9.595082 C 14.950431 10.674884 14.697262 11.617543 14.190885 12.423057 C 13.687238 13.224514 12.966633 13.853545 12.029586 14.308288 L 15.253061 18.99957 L 10.727723 18.999567 Z M 10.685767 9.595116 C 10.685708 8.897567 10.465491 8.357622 10.024267 7.975448 C 9.583394 7.590563 8.929172 7.398061 8.061601 7.39794 L 5.717905 7.397949 L 5.718027 11.766487 L 8.060875 11.766644 C 8.929294 11.766599 9.583187 11.579559 10.024085 11.204344 C 10.465167 10.825571 10.68601 10.289106 10.685767 9.595116 Z M 10.685767 9.595116 " stroke="#000000" stroke-width="0.706667" stroke-opacity="1" stroke-miterlimit="4"/><path stroke-linecap="butt" transform="matrix(-4.137505, -1.818024, 1.818024, -4.137505, 281.462977, 790.730476)" fill="none" stroke-linejoin="miter" d="M 9.024198 19.296626 C 7.444747 19.296719 6.024675 18.963375 4.765119 18.297038 C 3.507686 17.626936 2.520669 16.702062 1.801791 15.521527 C 1.082912 14.340993 0.724397 13.011555 0.723969 11.532327 C 0.723889 10.05389 1.083359 8.723357 1.80184 7.543797 C 2.520765 6.363098 3.508298 5.439183 4.764788 4.772843 C 6.025331 4.102835 7.445328 3.767784 9.024779 3.76769 C 10.600717 3.768197 12.017624 4.102931 13.274266 4.773381 C 14.533821 5.439718 15.524003 6.363202 16.241743 7.543293 C 16.960622 8.723827 17.320275 10.053709 17.320356 11.532146 C 17.319993 13.011722 16.960966 14.341116 16.242041 15.521814 C 15.52356 16.701374 14.534 17.627124 13.274249 18.296785 C 12.016967 18.963472 10.600927 19.296785 9.024198 19.296626 Z M 9.024813 15.802214 C 9.778335 15.802497 10.460553 15.625464 11.071467 15.271114 C 11.682129 14.914043 12.164919 14.412063 12.518602 13.766663 C 12.876337 13.117594 13.055005 12.372547 13.054952 11.532315 C 13.055499 10.695595 12.876343 9.954831 12.51872 9.308535 C 12.164705 8.65971 11.68185 8.158132 11.071292 7.804245 C 10.459786 7.446054 9.77819 7.267829 9.024667 7.267546 C 8.271145 7.267263 7.586901 7.44613 6.972726 7.803801 C 6.361812 8.158151 5.877883 8.659687 5.520148 9.308756 C 5.165673 9.954504 4.989128 10.695786 4.988581 11.532506 C 4.988634 12.372738 5.165668 13.117267 5.52003 13.766884 C 5.877305 14.412388 6.362091 14.914062 6.973249 15.271462 C 7.587668 15.625541 8.271639 15.802722 9.024813 15.802214 Z M 9.024813 15.802214 " stroke="#000000" stroke-width="0.706667" stroke-opacity="1" stroke-miterlimit="4"/><path stroke-linecap="butt" transform="matrix(-3.614521, -2.712821, 2.712821, -3.614521, 195.20324, 750.88083)" fill="none" stroke-linejoin="miter" d="M 15.700795 4.069489 L 15.700539 18.999695 L 12.222235 19.000365 L 5.629391 11.042677 L 5.629517 18.999852 L 1.494483 18.999537 L 1.494567 4.070541 L 4.967857 4.070392 L 11.560874 12.026869 L 11.560747 4.069694 Z M 15.700795 4.069489 " stroke="#000000" stroke-width="0.706667" stroke-opacity="1" stroke-miterlimit="4"/><path stroke-linecap="butt" transform="matrix(-3.001888, -3.378288, 3.378288, -3.001888, 124.901263, 695.630841)" fill="none" stroke-linejoin="miter" d="M 4.670869 7.418422 L 0.083332 7.419064 L 0.0829023 4.070093 L 13.46113 4.070028 L 13.460914 7.418425 L 8.894768 7.418417 L 8.89474 18.999703 L 4.670841 18.999708 Z M 4.670869 7.418422 " stroke="#000000" stroke-width="0.706667" stroke-opacity="1" stroke-miterlimit="4"/><path stroke-linecap="butt" transform="matrix(-2.492335, -3.769937, 3.769937, -2.492335, 79.861641, 642.780108)" fill="none" stroke-linejoin="miter" d="M 1.025848 11.365563 L 7.254232 11.365504 L 7.254023 14.480056 L 1.025639 14.480115 Z M 1.025848 11.365563 " stroke="#000000" stroke-width="0.706667" stroke-opacity="1" stroke-miterlimit="4"/><path stroke-linecap="butt" transform="matrix(-1.911323, -4.095241, 4.095241, -1.911323, 54.16407, 604.571054)" fill="none" stroke-linejoin="miter" d="M 13.482042 15.734482 L 13.482374 18.999668 L 1.49427 18.999893 L 1.494326 4.070244 L 13.200928 4.070269 L 13.201103 7.329659 L 5.676151 7.329707 L 5.675731 9.850539 L 12.305108 9.850297 L 12.305184 13.005671 L 5.67659 13.006279 L 5.67637 15.735144 Z M 13.482042 15.734482 " stroke="#000000" stroke-width="0.706667" stroke-opacity="1" stroke-miterlimit="4"/><path stroke-linecap="butt" transform="matrix(-1.034874, -4.399227, 4.399227, -1.034874, 22.170462, 534.645041)" fill="none" stroke-linejoin="miter" d="M 15.700406 4.070172 L 15.700973 19.000131 L 12.221958 19.000408 L 5.629121 11.043021 L 5.629132 18.999855 L 1.49474 19.000463 L 1.494371 4.069663 L 4.967942 4.069881 L 11.560779 12.027268 L 11.560767 4.070434 Z M 15.700406 4.070172 " stroke="#000000" stroke-width="0.706667" stroke-opacity="1" stroke-miterlimit="4"/><path stroke-linecap="butt" transform="matrix(-0.0180049, -4.519274, 4.519274, -0.0180049, 2.679141, 445.675102)" fill="none" stroke-linejoin="miter" d="M 1.494523 4.070265 L 8.551107 4.069855 C 10.189054 4.07033 11.640818 4.37518 12.904658 4.986992 C 14.171095 5.597949 15.152138 6.465347 15.846055 7.590042 C 16.544307 8.711297 16.893456 10.025641 16.893504 11.532209 C 16.893538 13.042235 16.544276 14.359847 15.846582 15.485048 C 15.152362 16.605942 14.171326 17.472438 12.904342 18.083674 C 11.640815 18.694924 10.189213 19.000308 8.550401 18.999829 L 1.494682 19.000243 Z M 8.384038 15.630781 C 9.661553 15.630685 10.687255 15.268285 11.462014 14.542722 C 12.239365 13.817169 12.628001 12.813474 12.627918 11.532502 C 12.627822 10.254987 12.239396 9.253383 11.461776 8.527685 C 10.687613 7.802002 9.661342 7.439206 8.383828 7.439303 L 5.718163 7.439055 L 5.717509 15.63053 Z M 8.384038 15.630781 " stroke="#000000" stroke-width="0.706667" stroke-opacity="1" stroke-miterlimit="4"/><path stroke-linecap="butt" transform="matrix(1.364987, -4.308244, 4.308244, 1.364987, 9.367455, 320.110991)" fill="none" stroke-linejoin="miter" d="M 1.494726 4.069795 L 8.550711 4.07014 C 10.18923 4.07054 11.640592 4.375951 12.903972 4.986634 C 14.171169 5.597921 15.15243 6.465726 15.84693 7.590311 C 16.543943 8.711379 16.893358 10.025993 16.892746 11.532202 C 16.893439 13.042531 16.544651 14.359845 15.846642 15.484968 C 15.15197 16.606313 14.171615 17.472723 12.90449 18.083633 C 11.640922 18.694324 10.189185 19.000142 8.550666 18.999742 L 1.494942 19.000221 Z M 8.384452 15.630549 C 9.662133 15.63103 10.687734 15.268007 11.461516 14.542302 C 12.239116 13.8172 12.628328 12.813488 12.628589 11.53225 C 12.628247 10.254829 12.239174 9.252895 11.461632 8.527271 C 10.687908 7.802251 9.661662 7.439219 8.384242 7.439561 L 5.717609 7.439397 L 5.717819 15.630385 Z M 8.384452 15.630549 " stroke="#000000" stroke-width="0.706667" stroke-opacity="1" stroke-miterlimit="4"/><path stroke-linecap="butt" transform="matrix(2.226855, -3.932591, 3.932591, 2.226855, 39.034114, 233.257127)" fill="none" stroke-linejoin="miter" d="M 13.482205 15.735291 L 13.482419 19.000152 L 1.494323 19.000265 L 1.494773 4.069691 L 13.201119 4.070192 L 13.201461 7.330016 L 5.676189 7.329985 L 5.675883 9.850165 L 12.305521 9.85077 L 12.305519 13.006491 L 5.67588 13.005886 L 5.676687 15.735023 Z M 13.482205 15.735291 " stroke="#000000" stroke-width="0.706667" stroke-opacity="1" stroke-miterlimit="4"/><path stroke-linecap="butt" transform="matrix(2.963973, -3.411602, 3.411602, 2.963973, 77.373662, 166.999348)" fill="none" stroke-linejoin="miter" d="M 16.638061 4.070169 L 10.237995 18.99995 L 6.07721 19.000074 L -0.296661 4.069801 L 4.264827 4.069626 L 8.316091 13.797455 L 12.456461 4.070058 Z M 16.638061 4.070169 " stroke="#000000" stroke-width="0.706667" stroke-opacity="1" stroke-miterlimit="4"/><path stroke-linecap="butt" transform="matrix(3.58285, -2.754514, 2.754514, 3.58285, 134.684543, 103.518524)" fill="none" stroke-linejoin="miter" d="M 13.482283 15.735078 L 13.481892 19.000116 L 1.494453 19.000107 L 1.494466 4.07005 L 13.200802 4.069818 L 13.200989 7.329849 L 5.676146 7.329648 L 5.676503 9.850612 L 12.305655 9.850157 L 12.305181 13.006105 L 5.67603 13.00656 L 5.676338 15.734636 Z M 13.482283 15.735078 " stroke="#000000" stroke-width="0.706667" stroke-opacity="1" stroke-miterlimit="4"/><path stroke-linecap="butt" transform="matrix(4.014708, -2.075158, 2.075158, 4.014708, 195.006615, 58.639841)" fill="none" stroke-linejoin="miter" d="M 1.494572 4.070168 L 5.717605 4.069629 L 5.717967 15.651255 L 12.8419 15.651761 L 12.842196 18.999955 L 1.494462 18.999591 Z M 1.494572 4.070168 " stroke="#000000" stroke-width="0.706667" stroke-opacity="1" stroke-miterlimit="4"/><path stroke-linecap="butt" transform="matrix(4.350113, -1.225021, 1.225021, 4.350113, 257.917695, 26.188058)" fill="none" stroke-linejoin="miter" d="M 9.025066 19.296525 C 7.445392 19.297069 6.025325 18.963617 4.76463 18.297003 C 3.508435 17.627166 2.520898 16.701637 1.801787 15.521246 C 1.083508 14.341089 0.723456 13.01128 0.724127 11.53252 C 0.723966 10.053526 1.083051 8.724188 1.801617 7.543675 C 2.520182 6.363161 3.508408 5.439975 4.764863 4.772815 C 6.024752 4.10303 7.445248 3.768516 9.024922 3.767972 C 10.600799 3.768155 12.016836 4.103165 13.273863 4.773236 C 14.534558 5.43985 15.523629 6.363118 16.241908 7.543275 C 16.961019 8.723666 17.320239 10.053241 17.3204 11.532235 C 17.320561 13.011229 16.96041 14.341164 16.241844 15.521678 C 15.523513 16.701359 14.534585 17.627042 13.273864 18.296592 C 12.017409 18.963753 10.600943 19.296708 9.025066 19.296525 Z M 9.024843 15.802479 C 9.778173 15.802703 10.460186 15.625698 11.070882 15.271467 C 11.682516 14.913908 12.165019 14.412228 12.519224 13.766664 C 12.876264 13.117408 13.05556 12.372302 13.054979 11.532541 C 13.05536 10.695744 12.876113 9.954732 12.519137 9.30914 C 12.164997 8.659857 11.682357 8.157573 11.070751 7.803951 C 10.460316 7.44617 9.777901 7.267467 9.024571 7.267243 C 8.271241 7.26702 7.587693 7.446286 6.972497 7.80374 C 6.361801 8.157972 5.877634 8.659182 5.519528 9.309036 C 5.166155 9.954835 4.988862 10.696016 4.988716 11.53198 C 4.989062 12.372573 5.165473 13.117277 5.519614 13.76656 C 5.877422 14.412386 6.361959 14.914307 6.972629 15.271256 C 7.587563 15.625815 8.271513 15.802256 9.024843 15.802479 Z M 9.024843 15.802479 " stroke="#000000" stroke-width="0.706667" stroke-opacity="1" stroke-miterlimit="4"/><path stroke-linecap="butt" transform="matrix(4.512658, -0.245097, 0.245097, 4.512658, 349.347788, 2.52316)" fill="none" stroke-linejoin="miter" d="M 8.31653 4.070052 C 9.670363 4.070006 10.844103 4.293895 11.836887 4.741673 C 12.833123 5.189639 13.599892 5.830295 14.138056 6.663685 C 14.679907 7.492949 14.95057 8.470219 14.950909 9.595544 C 14.95062 10.716507 14.679592 11.690326 14.13869 12.517046 C 13.600611 13.339592 12.83293 13.974812 11.836509 14.422754 C 10.843587 14.870019 9.670594 15.094562 8.316761 15.094609 L 5.71817 15.094567 L 5.718118 19.000245 L 1.494754 19.00025 L 1.494576 4.070016 Z M 8.061214 11.767134 C 8.929456 11.766681 9.583677 11.578884 10.024695 11.204652 C 10.465083 10.826057 10.685542 10.289227 10.686025 9.595026 C 10.685832 8.897325 10.464998 8.357302 10.024339 7.975868 C 9.583915 7.590117 8.929558 7.3979 8.061363 7.397489 L 5.718129 7.397467 L 5.71798 11.767111 Z M 8.061214 11.767134 " stroke="#000000" stroke-width="0.706667" stroke-opacity="1" stroke-miterlimit="4"/><path stroke-linecap="butt" transform="matrix(4.473969, 0.63856, -0.63856, 4.473969, 431.793606, -0.524092)" fill="none" stroke-linejoin="miter" d="M 13.482592 15.73525 L 13.482301 18.999836 L 1.494633 19.000395 L 1.494936 4.070236 L 13.200603 4.069764 L 13.201412 7.329827 L 5.676131 7.329973 L 5.676178 9.850624 L 12.305584 9.849997 L 12.305551 13.006281 L 5.676023 13.006052 L 5.676044 15.734505 Z M 13.482592 15.73525 " stroke="#000000" stroke-width="0.706667" stroke-opacity="1" stroke-miterlimit="4"/><path stroke-linecap="butt" transform="matrix(4.263279, 1.499536, -1.499536, 4.263279, 507.225218, 11.057162)" fill="none" stroke-linejoin="miter" d="M 8.019777 15.031823 L 5.718017 15.031459 L 5.717492 18.999944 L 1.494513 19.000056 L 1.494113 4.069825 L 8.316545 4.069821 C 9.669994 4.070221 10.843695 4.294188 11.836833 4.74201 C 12.832704 5.189787 13.600484 5.830491 14.138254 6.66388 C 14.680057 7.493102 14.950664 8.470854 14.951134 9.594934 C 14.950884 10.675286 14.697679 11.61738 14.190175 12.422604 C 13.68699 13.224477 12.967182 13.853321 12.029362 14.307794 L 15.252816 18.999547 L 10.727494 18.999718 Z M 10.686059 9.595193 C 10.686043 8.897012 10.465306 8.358013 10.02462 7.975175 C 9.583361 7.590707 8.929018 7.397551 8.061351 7.397625 L 5.717495 7.397408 L 5.717834 11.766908 L 8.061403 11.76631 C 8.929357 11.767051 9.583438 11.579137 10.024219 11.204199 C 10.46577 10.82624 10.685744 10.289824 10.686059 9.595193 Z M 10.686059 9.595193 " stroke="#000000" stroke-width="0.706667" stroke-opacity="1" stroke-miterlimit="4"/><path stroke-linecap="butt" transform="matrix(3.660314, 2.65071, -2.65071, 3.660314, 614.485701, 55.566807)" fill="none" stroke-linejoin="miter" d="M 13.310656 19.254805 L 11.623497 17.760607 C 10.928919 18.260402 10.154698 18.642853 9.300522 18.906052 C 8.446732 19.166838 7.550693 19.297073 6.613612 19.296951 C 5.488936 19.297148 4.471198 19.116386 3.562111 18.755559 C 2.652396 18.390917 1.941039 17.889032 1.427341 17.250411 C 0.916756 16.61167 0.660971 15.892993 0.661193 15.094574 C 0.661314 14.157493 0.909481 13.337463 1.406007 12.63639 C 1.906226 11.931576 2.695721 11.287274 3.775505 10.704885 C 2.823868 9.735624 2.348592 8.733014 2.348856 7.694447 C 2.348668 6.941147 2.553313 6.273226 2.962985 5.689477 C 3.376278 5.106308 3.962854 4.654845 4.723219 4.335787 C 5.483078 4.016029 6.362145 3.856463 7.358008 3.856704 C 8.736496 3.85626 9.848819 4.180896 10.696187 4.830806 C 11.543119 5.475695 11.96719 6.345704 11.967387 7.439431 C 11.966657 8.206202 11.742917 8.889018 11.294645 9.485779 C 10.84758 10.082733 10.146075 10.645173 9.191336 11.173291 L 11.368242 13.115354 C 11.652625 12.486804 11.872864 11.775575 12.029153 10.98046 L 15.294114 11.959561 C 15.009362 13.240432 14.548502 14.372433 13.90912 15.355179 L 15.487283 16.760762 Z M 7.358002 6.522549 C 6.945129 6.522729 6.62025 6.626733 6.384573 6.834757 C 6.151889 7.039545 6.035056 7.305575 6.035475 7.631832 C 6.035432 7.87198 6.103152 8.102543 6.23844 8.324728 C 6.374307 8.543292 6.625881 8.831739 6.993355 9.188862 C 7.562843 8.890642 7.964339 8.609493 8.196635 8.345223 C 8.432552 8.081532 8.550737 7.807053 8.550488 7.522293 C 8.550867 7.2104 8.448288 6.965595 8.24326 6.788578 C 8.038931 6.611055 7.743547 6.52295 7.358002 6.522549 Z M 6.910365 16.203838 C 7.736111 16.20348 8.496817 15.998365 9.191084 15.589506 L 5.97315 12.730111 C 5.504858 13.01481 5.162434 13.309741 4.947085 13.615098 C 4.735358 13.921034 4.62968 14.264361 4.629158 14.646793 C 4.629507 15.101163 4.83471 15.474416 5.244258 15.765853 C 5.657428 16.057869 6.212226 16.203566 6.910365 16.203838 Z M 6.910365 16.203838 " stroke="#000000" stroke-width="0.706667" stroke-opacity="1" stroke-miterlimit="4"/><path stroke-linecap="butt" transform="matrix(2.739718, 3.594177, -3.594177, 2.739718, 705.74236, 129.639477)" fill="none" stroke-linejoin="miter" d="M 11.49837 11.214569 L 15.231422 11.214832 L 15.232236 17.401674 C 14.377793 18.012168 13.395666 18.480773 12.284643 18.807652 C 11.177255 19.134041 10.067513 19.296699 8.956794 19.296675 C 7.394696 19.297104 5.986615 18.967161 4.733237 18.307372 C 3.48369 17.643981 2.502731 16.722338 1.791572 15.542278 C 1.079726 14.361694 0.723662 13.025188 0.723904 11.532072 C 0.723623 10.039644 1.079806 8.702645 1.791406 7.522452 C 2.503006 6.342259 3.4909 5.422669 4.754924 4.762472 C 6.021733 4.100049 7.452097 3.767709 9.045134 3.76804 C 10.437642 3.767671 11.687581 4.004237 12.794787 4.476527 C 13.905824 4.945217 14.831313 5.620254 15.570729 6.502325 L 12.883606 8.933927 C 11.873357 7.822584 10.664971 7.267735 9.258812 7.267479 C 7.977815 7.26699 6.944959 7.656714 6.160443 8.433541 C 5.379397 9.208666 4.98894 10.24131 4.988547 11.532162 C 4.989013 12.358506 5.165638 13.09633 5.519632 13.745471 C 5.877458 14.391011 6.375539 14.896753 7.014236 15.260798 C 7.656927 15.622454 8.389202 15.802426 9.211912 15.80245 C 10.024767 15.80257 10.786358 15.637541 11.498582 15.307722 Z M 11.49837 11.214569 " stroke="#000000" stroke-width="0.706667" stroke-opacity="1" stroke-miterlimit="4"/><path stroke-linecap="butt" transform="matrix(1.869478, 4.114513, -4.114513, 1.869478, 757.906549, 199.892309)" fill="none" stroke-linejoin="miter" d="M 9.024128 19.297074 C 7.44552 19.296599 6.024736 18.963396 4.764852 18.296964 C 3.50833 17.627312 2.520021 16.701671 1.801928 15.521901 C 1.083405 14.340987 0.723746 13.011729 0.723664 11.532552 C 0.723582 10.053375 1.08298 8.723292 1.801501 7.543089 C 2.520809 6.363244 3.50805 5.43995 4.765156 4.773135 C 6.024837 4.102743 7.445161 3.768321 9.024915 3.768367 C 10.601163 3.767769 12.017369 4.10269 13.273533 4.773129 C 14.534204 5.439919 15.523586 6.363198 16.242465 7.543326 C 16.960988 8.72424 17.320647 10.053499 17.319942 11.532318 C 17.320024 13.011494 16.960983 14.34079 16.242105 15.52178 C 15.523584 16.701983 14.534483 17.627281 13.274016 18.297315 C 12.017268 18.963343 10.601163 19.296834 9.024128 19.297074 Z M 9.024527 15.802575 C 9.778422 15.802389 10.459969 15.625024 11.07153 15.271554 C 11.68216 14.913864 12.164436 14.41241 12.518717 13.766405 C 12.876358 13.117182 13.055223 12.372487 13.05531 11.532322 C 13.05554 10.69602 12.876736 9.954957 12.518897 9.309132 C 12.164777 8.659301 11.682349 8.158137 11.071539 7.803708 C 10.460228 7.446204 9.778197 7.26733 9.024302 7.267516 C 8.271552 7.267273 7.587358 7.446283 6.972865 7.804117 C 6.362091 8.157945 5.877884 8.65947 5.520242 9.308694 C 5.165961 9.954699 4.988885 10.695458 4.988296 11.532547 C 4.988997 12.37307 5.165584 13.116923 5.519703 13.766754 C 5.877542 14.412579 6.361902 14.913671 6.973213 15.271176 C 7.587099 15.625104 8.271419 15.803119 9.024527 15.802575 Z M 9.024527 15.802575 " stroke="#000000" stroke-width="0.706667" stroke-opacity="1" stroke-miterlimit="4"/><path stroke-linecap="butt" transform="matrix(0.85827, 4.437063, -4.437063, 0.85827, 795.882323, 287.431294)" fill="none" stroke-linejoin="miter" d="M 9.024487 19.296538 C 7.445109 19.296524 6.025175 18.963759 4.76485 18.297395 C 3.507892 17.62728 2.520376 16.702036 1.801453 15.521497 C 1.083379 14.341123 0.723397 13.011684 0.723368 11.532659 C 0.724188 10.053799 1.083625 8.72354 1.801352 7.54358 C 2.520092 6.362935 3.507784 5.43944 4.765277 4.773259 C 6.025288 4.103163 7.445065 3.767698 9.024443 3.767712 C 10.601111 3.768083 12.017157 4.102737 13.274116 4.772852 C 14.534277 5.440065 15.523983 6.363091 16.242057 7.543466 C 16.960979 8.724004 17.320112 10.053279 17.320141 11.532304 C 17.32017 13.011328 16.960897 14.340738 16.242157 15.521383 C 15.523418 16.702028 14.534549 17.627056 13.273689 18.296988 C 12.017045 18.963333 10.601155 19.296909 9.024487 19.296538 Z M 9.024259 15.802312 C 9.77776 15.802803 10.459958 15.625752 11.070854 15.271161 C 11.682243 14.914025 12.164902 14.412257 12.518668 13.766708 C 12.876649 13.117573 13.055017 12.372949 13.055635 11.532317 C 13.055431 10.695927 12.87665 9.954409 12.519126 9.308612 C 12.164804 8.659912 11.68258 8.158143 11.07144 7.80399 C 10.460108 7.446279 9.778034 7.267685 9.024534 7.267194 C 8.270869 7.267552 7.587494 7.446136 6.972547 7.803465 C 6.361651 8.158056 5.877294 8.659494 5.520162 9.308794 C 5.165548 9.954179 4.988685 10.695573 4.988724 11.532811 C 4.989119 12.372758 5.165547 13.117343 5.519868 13.766042 C 5.877392 14.41184 6.362162 14.914101 6.972645 15.271648 C 7.587344 15.625609 8.271443 15.802835 9.024259 15.802312 Z M 9.024259 15.802312 " stroke="#000000" stroke-width="0.706667" stroke-opacity="1" stroke-miterlimit="4"/><path stroke-linecap="butt" transform="matrix(-0.187715, 4.515409, -4.515409, -0.187715, 812.299595, 381.237042)" fill="none" stroke-linejoin="miter" d="M 1.494802 4.070145 L 8.5505 4.070091 C 10.188996 4.070318 11.64035 4.375916 12.904563 4.986886 C 14.171367 5.597749 15.152116 6.465325 15.846845 7.590478 C 16.544023 8.712069 16.892756 10.025489 16.893118 11.532466 C 16.893623 13.042898 16.544389 14.360247 15.846317 15.48534 C 15.152383 16.605936 14.171074 17.472896 12.904012 18.083555 C 11.640403 18.694071 10.189387 19.00008 8.550891 18.999853 L 1.49433 18.999943 Z M 8.383995 15.630333 C 9.661759 15.630849 10.687387 15.268127 11.461742 14.542131 C 12.239588 13.816854 12.627834 12.813643 12.628206 11.532424 C 12.627859 10.254696 12.239335 9.253498 11.461734 8.528003 C 10.687587 7.802364 9.662064 7.439269 8.384336 7.439616 L 5.718123 7.439724 L 5.717782 15.630441 Z M 8.383995 15.630333 " stroke="#000000" stroke-width="0.706667" stroke-opacity="1" stroke-miterlimit="4"/><path stroke-linecap="butt" transform="matrix(-1.524207, 4.254522, -4.254522, -1.524207, 799.761827, 505.806739)" fill="none" stroke-linejoin="miter" d="M 16.638158 4.069998 L 10.238401 19.000038 L 6.077274 18.999725 L -0.296941 4.07002 L 4.26525 4.06988 L 8.316782 13.797677 L 12.455984 4.06988 Z M 16.638158 4.069998 " stroke="#000000" stroke-width="0.706667" stroke-opacity="1" stroke-miterlimit="4"/><path stroke-linecap="butt" transform="matrix(-2.157728, 3.970941, -3.970941, -2.157728, 769.740541, 582.877023)" fill="none" stroke-linejoin="miter" d="M 1.494667 4.069562 L 5.717841 4.069768 L 5.717743 18.999572 L 1.494981 19.000125 Z M 1.494667 4.069562 " stroke="#000000" stroke-width="0.706667" stroke-opacity="1" stroke-miterlimit="4"/><path stroke-linecap="butt" transform="matrix(-2.741852, 3.592549, -3.592549, -2.741852, 750.583094, 620.018653)" fill="none" stroke-linejoin="miter" d="M 12.966264 11.214692 C 13.820355 11.513163 14.488984 11.980362 14.971628 12.615602 C 15.45787 13.247009 15.700607 14.010981 15.700525 14.906995 C 15.700944 16.212547 15.173325 17.220865 14.117669 17.931951 C 13.066172 18.644211 11.545094 19.000489 9.555811 18.999735 L 1.494632 19.000012 L 1.49424 4.070321 L 9.129281 4.070165 C 11.034882 4.069548 12.484123 4.422663 13.47733 5.127087 C 14.473449 5.828202 14.972032 6.776386 14.971345 7.970788 C 14.971438 8.681824 14.79769 9.318946 14.450787 9.88163 C 14.103884 10.444314 13.608868 10.888439 12.966264 11.214692 Z M 5.676139 7.122065 L 5.676243 9.995772 L 8.576405 9.996137 C 9.996578 9.996312 10.70702 9.513901 10.706521 8.548742 C 10.706656 7.597234 9.996636 7.121393 8.576988 7.121906 Z M 9.21209 15.947913 C 10.691391 15.948628 11.430168 15.443505 11.430843 14.43287 C 11.430342 13.426393 10.691391 12.922617 9.211927 12.923113 L 5.675933 12.923074 L 5.67662 15.948561 Z M 9.21209 15.947913 " stroke="#000000" stroke-width="0.706667" stroke-opacity="1" stroke-miterlimit="4"/><path stroke-linecap="butt" transform="matrix(-3.402362, 2.974575, -2.974575, -3.402362, 697.231072, 687.236121)" fill="none" stroke-linejoin="miter" d="M 13.482355 15.734867 L 13.482084 18.999825 L 1.494337 19.000327 L 1.494891 4.069776 L 13.200896 4.069797 L 13.201516 7.329795 L 5.676274 7.330478 L 5.676263 9.850547 L 12.305378 9.850561 L 12.305142 13.006481 L 5.676027 13.006467 L 5.676509 15.734772 Z M 13.482355 15.734867 " stroke="#000000" stroke-width="0.706667" stroke-opacity="1" stroke-miterlimit="4"/><path stroke-linecap="butt" transform="matrix(-3.888036, 2.303765, -2.303765, -3.888036, 639.684163, 736.101007)" fill="none" stroke-linejoin="miter" d="M 6.738809 19.297142 C 5.53053 19.29654 4.356862 19.147659 3.218687 18.849011 C 2.083183 18.550942 1.159404 18.153277 0.448095 17.656455 L 1.832948 14.542673 C 2.50333 14.983094 3.278939 15.339181 4.160657 15.609446 C 5.042679 15.880896 5.90883 16.016353 6.759111 16.015816 C 8.380523 16.016067 9.190769 15.610027 9.191032 14.797394 C 9.190901 14.370325 8.959987 14.054669 8.498731 13.84968 C 8.03731 13.64158 7.294039 13.424213 6.269967 13.199203 C 5.148401 12.955608 4.209234 12.697518 3.452604 12.423005 C 2.698921 12.145214 2.052086 11.700661 1.509731 11.089952 C 0.971948 10.47492 0.702645 9.649245 0.703146 8.610697 C 0.703322 7.701562 0.95109 6.879855 1.4478 6.148386 C 1.947319 5.415568 2.690936 4.835421 3.676282 4.408552 C 4.665925 3.981215 5.879398 3.767883 7.316703 3.768557 C 8.298765 3.767738 9.265878 3.878624 10.216858 4.101516 C 11.168554 4.31981 12.006981 4.64279 12.73258 5.069713 L 11.430707 8.204532 C 10.010523 7.437382 8.632329 7.053784 7.296125 7.053739 C 6.455923 7.054221 5.842468 7.179008 5.457245 7.428984 C 5.075134 7.678793 4.884653 8.001961 4.884315 8.397606 C 4.884885 8.796804 5.11186 9.097066 5.567167 9.298529 C 6.021565 9.496439 6.754094 9.701414 7.76401 9.913013 C 8.903064 10.155918 9.845949 10.416212 10.591921 10.693452 C 11.338471 10.96802 11.984397 11.40902 12.529258 12.017195 C 13.077947 12.620606 13.351821 13.441957 13.351761 14.47976 C 13.352548 15.375401 13.102053 16.18645 12.6019 16.91186 C 12.105878 17.63369 11.359287 18.212074 10.363008 18.645525 C 9.370143 19.079996 8.161875 19.296412 6.738809 19.297142 Z M 6.738809 19.297142 " stroke="#000000" stroke-width="0.706667" stroke-opacity="1" stroke-miterlimit="4"/><path stroke-linecap="butt" transform="matrix(-4.368233, 1.158749, -1.158749, -4.368233, 545.450904, 785.666476)" fill="none" stroke-linejoin="miter" d="M 13.310487 19.254816 L 11.623176 17.760966 C 10.928974 18.260911 10.154497 18.64209 9.300973 18.906615 C 8.446886 19.166521 7.551038 19.297309 6.613039 19.297087 C 5.489077 19.296719 4.471891 19.116317 3.561704 18.755046 C 2.652404 18.390433 1.940468 17.888596 1.42651 17.250591 C 0.916337 16.611801 0.66162 15.893226 0.661523 15.094644 C 0.661523 14.15748 0.90933 13.337917 1.40578 12.636177 C 1.905623 11.93176 2.696237 11.287485 3.775507 10.704578 C 2.824327 9.735975 2.348309 8.732453 2.348289 7.694235 C 2.348585 6.941363 2.553552 6.273188 2.963188 5.689709 C 3.376388 5.106281 3.962973 4.654694 4.723556 4.336004 C 5.483526 4.016257 6.361964 3.856706 7.358257 3.856295 C 8.736331 3.856108 9.849359 4.180868 10.696506 4.830353 C 11.543704 5.476274 11.966709 6.345905 11.967192 7.439689 C 11.966691 8.206814 11.742868 8.888766 11.294666 9.486159 C 10.84752 10.082938 10.145716 10.645252 9.191146 11.172708 L 11.368282 13.115735 C 11.652976 12.487488 11.873251 11.775085 12.029502 10.980418 L 15.29493 11.959304 C 15.009698 13.240204 14.548387 14.372452 13.909546 15.35477 L 15.487001 16.760458 Z M 7.358235 6.522913 C 6.945218 6.522451 6.620643 6.626825 6.384732 6.8352 C 6.151599 7.039841 6.035414 7.305909 6.035562 7.632346 C 6.035707 7.871147 6.103046 8.102733 6.238242 8.324598 C 6.374325 8.543121 6.625975 8.831647 6.993413 9.189341 C 7.562715 8.890555 7.963837 8.608859 8.196558 8.345089 C 8.432843 8.08137 8.551023 7.807783 8.550706 7.522436 C 8.550353 7.210253 8.448198 6.96496 8.243798 6.788229 C 8.038562 6.611275 7.743579 6.523189 7.358235 6.522913 Z M 6.910601 16.203256 C 7.736855 16.203345 8.496641 15.998907 9.191017 15.589326 L 5.97285 12.729871 C 5.504586 13.015218 5.16261 13.30992 4.947315 13.615871 C 4.73497 13.920816 4.629409 14.264818 4.629185 14.646599 C 4.629389 15.100927 4.834325 15.474534 5.244215 15.766584 C 5.657054 16.057627 6.213073 16.203332 6.910601 16.203256 Z M 6.910601 16.203256 " stroke="#000000" stroke-width="0.706667" stroke-opacity="1" stroke-miterlimit="4"/></svg>