<svg xmlns="http://www.w3.org/2000/svg" xmlns:xlink="http://www.w3.org/1999/xlink" width="100" zoomAndPan="magnify" viewBox="0 0 75 74.999997" height="100" preserveAspectRatio="xMidYMid meet" version="1.0"><defs><clipPath id="1fd98bd82f"><path d="M 11.625 0 L 63.375 0 L 63.375 75 L 11.625 75 Z M 11.625 0 " clip-rule="nonzero"/></clipPath></defs><g clip-path="url(#1fd98bd82f)"><path fill="#ffffff" d="M 25.875 -0.00390625 C 18.007812 -0.00390625 11.628906 6.375 11.628906 14.242188 C 11.628906 19.042969 14.003906 23.289062 17.644531 25.871094 C 14.003906 28.449219 11.628906 32.695312 11.628906 37.496094 C 11.628906 42.300781 14.003906 46.546875 17.644531 49.125 C 14.003906 51.707031 11.628906 55.953125 11.628906 60.753906 C 11.628906 68.621094 18.007812 75 25.875 75 C 33.742188 75 40.121094 68.621094 40.121094 60.753906 L 40.121094 48.53125 C 42.574219 50.539062 45.710938 51.742188 49.132812 51.742188 C 57 51.742188 63.375 45.363281 63.375 37.496094 C 63.375 32.695312 61 28.449219 57.363281 25.871094 C 61 23.289062 63.375 19.042969 63.375 14.242188 C 63.375 6.375 57 -0.00390625 49.132812 -0.00390625 Z M 34.886719 46.507812 L 25.875 46.507812 C 20.898438 46.507812 16.863281 42.476562 16.863281 37.496094 C 16.863281 32.519531 20.898438 28.484375 25.875 28.484375 L 34.886719 28.484375 Z M 25.875 23.253906 L 34.886719 23.253906 L 34.886719 5.230469 L 25.875 5.230469 C 20.898438 5.230469 16.863281 9.265625 16.863281 14.242188 C 16.863281 19.21875 20.898438 23.253906 25.875 23.253906 Z M 58.144531 14.242188 C 58.144531 19.214844 54.113281 23.246094 49.140625 23.253906 L 40.121094 23.253906 L 40.121094 5.230469 L 49.132812 5.230469 C 54.109375 5.230469 58.144531 9.265625 58.144531 14.242188 Z M 40.121094 37.488281 C 40.125 32.519531 44.152344 28.492188 49.121094 28.484375 L 49.140625 28.484375 C 54.113281 28.492188 58.144531 32.523438 58.144531 37.496094 C 58.144531 42.476562 54.109375 46.507812 49.132812 46.507812 C 44.160156 46.507812 40.125 42.480469 40.121094 37.507812 Z M 25.875 51.742188 C 20.898438 51.742188 16.863281 55.777344 16.863281 60.753906 C 16.863281 65.730469 20.898438 69.765625 25.875 69.765625 C 30.851562 69.765625 34.886719 65.730469 34.886719 60.753906 L 34.886719 51.742188 Z M 25.875 51.742188 " fill-opacity="1" fill-rule="evenodd"/></g></svg>