<svg xmlns="http://www.w3.org/2000/svg" xmlns:xlink="http://www.w3.org/1999/xlink" width="100" zoomAndPan="magnify" viewBox="0 0 75 74.999997" height="100" preserveAspectRatio="xMidYMid meet" version="1.0"><defs><clipPath id="02a94ec61e"><path d="M 0 0.457031 L 74.25 0.457031 L 74.25 74.707031 L 0 74.707031 Z M 0 0.457031 " clip-rule="nonzero"/></clipPath></defs><g clip-path="url(#02a94ec61e)"><path fill="#ffffff" d="M 72.847656 34.273438 L 40.429688 1.859375 C 40.210938 1.636719 39.96875 1.4375 39.707031 1.261719 C 39.445312 1.089844 39.171875 0.941406 38.878906 0.820312 C 38.589844 0.699219 38.292969 0.609375 37.984375 0.546875 C 37.675781 0.488281 37.363281 0.457031 37.050781 0.457031 C 36.738281 0.457031 36.425781 0.488281 36.117188 0.546875 C 35.808594 0.609375 35.511719 0.699219 35.222656 0.820312 C 34.929688 0.941406 34.65625 1.089844 34.394531 1.261719 C 34.132812 1.4375 33.890625 1.636719 33.671875 1.859375 L 26.941406 8.585938 L 35.480469 17.125 C 37.464844 16.429688 39.738281 16.90625 41.324219 18.488281 C 41.699219 18.863281 42.015625 19.285156 42.273438 19.753906 C 42.53125 20.21875 42.722656 20.714844 42.839844 21.234375 C 42.960938 21.753906 43.003906 22.277344 42.976562 22.8125 C 42.945312 23.34375 42.84375 23.859375 42.671875 24.363281 L 50.902344 32.59375 C 52.890625 31.90625 55.1875 32.351562 56.777344 33.945312 C 57.042969 34.210938 57.277344 34.496094 57.484375 34.808594 C 57.695312 35.117188 57.871094 35.445312 58.011719 35.792969 C 58.15625 36.136719 58.265625 36.492188 58.335938 36.859375 C 58.410156 37.226562 58.445312 37.597656 58.445312 37.96875 C 58.445312 38.34375 58.410156 38.714844 58.335938 39.082031 C 58.265625 39.445312 58.15625 39.804688 58.011719 40.148438 C 57.871094 40.492188 57.695312 40.820312 57.488281 41.132812 C 57.277344 41.445312 57.042969 41.730469 56.777344 41.996094 C 56.515625 42.257812 56.226562 42.496094 55.917969 42.703125 C 55.605469 42.910156 55.277344 43.085938 54.933594 43.230469 C 54.585938 43.371094 54.230469 43.480469 53.863281 43.550781 C 53.496094 43.625 53.128906 43.660156 52.753906 43.660156 C 52.378906 43.660156 52.007812 43.625 51.644531 43.550781 C 51.277344 43.480469 50.921875 43.371094 50.574219 43.226562 C 50.230469 43.082031 49.902344 42.910156 49.589844 42.699219 C 49.28125 42.492188 48.992188 42.257812 48.730469 41.992188 C 47.058594 40.320312 46.644531 37.863281 47.488281 35.804688 L 39.8125 28.128906 L 39.8125 48.328125 C 40.375 48.605469 40.878906 48.964844 41.324219 49.402344 C 41.585938 49.667969 41.824219 49.953125 42.03125 50.265625 C 42.238281 50.574219 42.414062 50.902344 42.554688 51.25 C 42.699219 51.59375 42.808594 51.949219 42.878906 52.316406 C 42.953125 52.683594 42.988281 53.054688 42.988281 53.425781 C 42.988281 53.800781 42.953125 54.171875 42.878906 54.535156 C 42.808594 54.902344 42.699219 55.257812 42.554688 55.605469 C 42.414062 55.949219 42.238281 56.277344 42.03125 56.585938 C 41.824219 56.898438 41.585938 57.1875 41.324219 57.449219 C 41.058594 57.714844 40.769531 57.949219 40.460938 58.15625 C 40.148438 58.363281 39.820312 58.539062 39.476562 58.683594 C 39.132812 58.828125 38.777344 58.933594 38.410156 59.007812 C 38.042969 59.082031 37.671875 59.117188 37.300781 59.117188 C 36.925781 59.117188 36.554688 59.082031 36.1875 59.007812 C 35.824219 58.933594 35.464844 58.828125 35.121094 58.683594 C 34.777344 58.539062 34.449219 58.363281 34.136719 58.15625 C 33.828125 57.949219 33.539062 57.714844 33.277344 57.449219 C 33.011719 57.1875 32.773438 56.898438 32.566406 56.589844 C 32.359375 56.277344 32.183594 55.949219 32.039062 55.605469 C 31.898438 55.257812 31.789062 54.902344 31.714844 54.535156 C 31.644531 54.171875 31.605469 53.800781 31.605469 53.425781 C 31.605469 53.054688 31.644531 52.683594 31.714844 52.316406 C 31.789062 51.949219 31.898438 51.59375 32.039062 51.25 C 32.183594 50.902344 32.359375 50.574219 32.566406 50.265625 C 32.773438 49.953125 33.011719 49.667969 33.277344 49.402344 C 33.824219 48.855469 34.4375 48.441406 35.140625 48.160156 L 35.140625 27.777344 C 34.460938 27.496094 33.824219 27.085938 33.277344 26.535156 C 32.875 26.136719 32.542969 25.6875 32.277344 25.1875 C 32.011719 24.691406 31.824219 24.164062 31.714844 23.609375 C 31.605469 23.054688 31.582031 22.5 31.636719 21.9375 C 31.695312 21.375 31.832031 20.835938 32.050781 20.3125 L 23.628906 11.894531 L 1.398438 34.101562 C 1.175781 34.324219 0.976562 34.5625 0.804688 34.824219 C 0.628906 35.085938 0.480469 35.363281 0.363281 35.652344 C 0.242188 35.941406 0.152344 36.242188 0.0898438 36.550781 C 0.0273438 36.859375 -0.00390625 37.167969 -0.00390625 37.484375 C -0.00390625 37.796875 0.0273438 38.109375 0.0898438 38.414062 C 0.152344 38.722656 0.242188 39.023438 0.363281 39.3125 C 0.480469 39.601562 0.628906 39.878906 0.804688 40.140625 C 0.976562 40.402344 1.175781 40.640625 1.398438 40.863281 L 33.820312 73.277344 C 34.039062 73.5 34.28125 73.699219 34.542969 73.875 C 34.804688 74.046875 35.078125 74.195312 35.371094 74.316406 C 35.660156 74.4375 35.957031 74.527344 36.265625 74.589844 C 36.574219 74.648438 36.886719 74.679688 37.199219 74.679688 C 37.511719 74.679688 37.824219 74.648438 38.132812 74.589844 C 38.441406 74.527344 38.738281 74.4375 39.027344 74.316406 C 39.320312 74.195312 39.59375 74.046875 39.855469 73.875 C 40.117188 73.699219 40.359375 73.5 40.578125 73.277344 L 72.847656 41.0625 C 73.070312 40.839844 73.269531 40.597656 73.445312 40.335938 C 73.617188 40.074219 73.765625 39.800781 73.886719 39.511719 C 74.007812 39.21875 74.097656 38.921875 74.160156 38.613281 C 74.21875 38.304688 74.25 37.992188 74.25 37.679688 C 74.25 37.367188 74.21875 37.054688 74.160156 36.746094 C 74.097656 36.4375 74.007812 36.140625 73.886719 35.847656 C 73.765625 35.558594 73.617188 35.285156 73.445312 35.023438 C 73.269531 34.761719 73.070312 34.519531 72.847656 34.296875 " fill-opacity="1" fill-rule="nonzero"/></g></svg>