<svg xmlns="http://www.w3.org/2000/svg" xmlns:xlink="http://www.w3.org/1999/xlink" width="100" zoomAndPan="magnify" viewBox="0 0 75 74.999997" height="100" preserveAspectRatio="xMidYMid meet" version="1.0"><defs><filter x="0%" y="0%" width="100%" height="100%" id="997511519e"><feColorMatrix values="0 0 0 0 1 0 0 0 0 1 0 0 0 0 1 0 0 0 1 0" color-interpolation-filters="sRGB"/></filter><mask id="272f509f2d"><g filter="url(#997511519e)"><rect x="-7.5" width="90" fill="#000000" y="-7.5" height="89.999996" fill-opacity="0.2471"/></g></mask><clipPath id="ac5ea8af18"><path d="M 23 0.394531 L 35 0.394531 L 35 12 L 23 12 Z M 23 0.394531 " clip-rule="nonzero"/></clipPath><clipPath id="4cb4def822"><path d="M 56 2 L 72.929688 2 L 72.929688 19 L 56 19 Z M 56 2 " clip-rule="nonzero"/></clipPath><clipPath id="bd4fbb6994"><path d="M 12 37 L 24 37 L 24 48.394531 L 12 48.394531 Z M 12 37 " clip-rule="nonzero"/></clipPath><clipPath id="b378008bf5"><path d="M 0.199219 27 L 8 27 L 8 35 L 0.199219 35 Z M 0.199219 27 " clip-rule="nonzero"/></clipPath><clipPath id="ff5f38c213"><rect x="0" width="74" y="0" height="49"/></clipPath></defs><g mask="url(#272f509f2d)"><g transform="matrix(1, 0, 0, 1, 1, 13)"><g clip-path="url(#ff5f38c213)"><g clip-path="url(#ac5ea8af18)"><path fill="#ffffff" d="M 31.507812 11.117188 L 25.796875 11.117188 C 24.398438 11.117188 23.257812 9.988281 23.257812 8.59375 L 23.257812 2.917969 C 23.257812 1.527344 24.398438 0.394531 25.796875 0.394531 L 31.507812 0.394531 C 32.90625 0.394531 34.046875 1.527344 34.046875 2.917969 L 34.046875 8.597656 C 34.042969 9.988281 32.90625 11.117188 31.507812 11.117188 Z M 25.796875 0.972656 C 24.71875 0.972656 23.839844 1.84375 23.839844 2.917969 L 23.839844 8.59375 C 23.839844 9.667969 24.71875 10.539062 25.796875 10.539062 L 31.507812 10.539062 C 32.585938 10.539062 33.464844 9.667969 33.464844 8.59375 L 33.464844 2.917969 C 33.464844 1.847656 32.585938 0.972656 31.507812 0.972656 Z M 25.796875 0.972656 " fill-opacity="1" fill-rule="nonzero"/></g><path fill="#ffffff" d="M 50.320312 40.984375 L 39.769531 40.984375 C 37.320312 40.984375 35.328125 39.003906 35.328125 36.570312 L 35.328125 26.078125 C 35.328125 23.644531 37.320312 21.664062 39.769531 21.664062 L 50.320312 21.664062 C 52.765625 21.664062 54.757812 23.644531 54.757812 26.078125 L 54.757812 36.570312 C 54.757812 39.003906 52.765625 40.984375 50.320312 40.984375 Z M 39.769531 22.242188 C 37.640625 22.242188 35.90625 23.960938 35.90625 26.078125 L 35.90625 36.570312 C 35.90625 38.683594 37.640625 40.40625 39.769531 40.40625 L 50.320312 40.40625 C 52.445312 40.40625 54.179688 38.6875 54.179688 36.570312 L 54.179688 26.078125 C 54.179688 23.964844 52.449219 22.242188 50.320312 22.242188 Z M 39.769531 22.242188 " fill-opacity="1" fill-rule="nonzero"/><g clip-path="url(#4cb4def822)"><path fill="#ffffff" d="M 69.191406 18.828125 L 60.511719 18.828125 C 58.46875 18.828125 56.808594 17.175781 56.808594 15.144531 L 56.808594 6.515625 C 56.808594 4.484375 58.46875 2.832031 60.511719 2.832031 L 69.191406 2.832031 C 71.234375 2.832031 72.894531 4.484375 72.894531 6.515625 L 72.894531 15.144531 C 72.894531 17.175781 71.234375 18.828125 69.191406 18.828125 Z M 60.511719 3.410156 C 58.789062 3.410156 57.386719 4.800781 57.386719 6.511719 L 57.386719 15.144531 C 57.386719 16.859375 58.789062 18.253906 60.511719 18.253906 L 69.191406 18.253906 C 70.914062 18.253906 72.316406 16.859375 72.316406 15.144531 L 72.316406 6.515625 C 72.316406 4.804688 70.914062 3.410156 69.191406 3.410156 Z M 60.511719 3.410156 " fill-opacity="1" fill-rule="nonzero"/></g><path fill="#ffffff" d="M 28.363281 28.785156 L 24.628906 28.785156 C 23.65625 28.785156 22.867188 28 22.867188 27.035156 L 22.867188 23.320312 C 22.867188 22.355469 23.65625 21.570312 24.628906 21.570312 L 28.363281 21.570312 C 29.335938 21.570312 30.125 22.355469 30.125 23.320312 L 30.125 27.035156 C 30.125 28 29.335938 28.785156 28.363281 28.785156 Z M 24.628906 22.148438 C 23.976562 22.148438 23.449219 22.675781 23.449219 23.320312 L 23.449219 27.035156 C 23.449219 27.683594 23.976562 28.210938 24.628906 28.210938 L 28.363281 28.210938 C 29.015625 28.210938 29.546875 27.683594 29.546875 27.035156 L 29.546875 23.320312 C 29.546875 22.675781 29.015625 22.148438 28.363281 22.148438 Z M 24.628906 22.148438 " fill-opacity="1" fill-rule="nonzero"/><g clip-path="url(#bd4fbb6994)"><path fill="#ffffff" d="M 20.910156 48.394531 L 15.203125 48.394531 C 13.800781 48.394531 12.664062 47.261719 12.664062 45.871094 L 12.664062 40.191406 C 12.664062 38.800781 13.800781 37.671875 15.203125 37.671875 L 20.910156 37.671875 C 22.3125 37.671875 23.449219 38.800781 23.449219 40.191406 L 23.449219 45.871094 C 23.449219 47.261719 22.3125 48.394531 20.910156 48.394531 Z M 15.203125 38.25 C 14.121094 38.25 13.246094 39.121094 13.246094 40.191406 L 13.246094 45.871094 C 13.246094 46.945312 14.121094 47.816406 15.203125 47.816406 L 20.910156 47.816406 C 21.992188 47.816406 22.867188 46.945312 22.867188 45.871094 L 22.867188 40.191406 C 22.867188 39.121094 21.992188 38.25 20.910156 38.25 Z M 15.203125 38.25 " fill-opacity="1" fill-rule="nonzero"/></g><g clip-path="url(#b378008bf5)"><path fill="#ffffff" d="M 5.699219 34.261719 L 1.964844 34.261719 C 0.992188 34.261719 0.203125 33.476562 0.203125 32.511719 L 0.203125 28.796875 C 0.203125 27.832031 0.992188 27.046875 1.964844 27.046875 L 5.699219 27.046875 C 6.671875 27.046875 7.460938 27.832031 7.460938 28.796875 L 7.460938 32.511719 C 7.460938 33.476562 6.671875 34.261719 5.699219 34.261719 Z M 1.964844 27.621094 C 1.3125 27.621094 0.78125 28.148438 0.78125 28.796875 L 0.78125 32.511719 C 0.78125 33.160156 1.3125 33.683594 1.964844 33.683594 L 5.699219 33.683594 C 6.351562 33.683594 6.878906 33.160156 6.878906 32.511719 L 6.878906 28.796875 C 6.878906 28.148438 6.351562 27.621094 5.699219 27.621094 Z M 1.964844 27.621094 " fill-opacity="1" fill-rule="nonzero"/></g></g></g></g></svg>