<svg xmlns="http://www.w3.org/2000/svg" xmlns:xlink="http://www.w3.org/1999/xlink" width="100" zoomAndPan="magnify" viewBox="0 0 75 74.999997" height="100" preserveAspectRatio="xMidYMid meet" version="1.0"><defs><clipPath id="2225dc3181"><path d="M 4.636719 0 L 70.636719 0 L 70.636719 75 L 4.636719 75 Z M 4.636719 0 " clip-rule="nonzero"/></clipPath></defs><g clip-path="url(#2225dc3181)"><path fill="#ffffff" d="M 10.628906 67.335938 L 4.617188 0.214844 L 70.65625 0.214844 L 64.640625 67.324219 L 37.59375 74.789062 Z M 10.628906 67.335938 " fill-opacity="1" fill-rule="nonzero"/></g><path fill="#ffffff" d="M 59.488281 63.050781 L 64.628906 5.703125 L 37.636719 5.703125 L 37.636719 69.085938 Z M 59.488281 63.050781 " fill-opacity="1" fill-rule="nonzero"/><path fill="#090909" d="M 37.609375 13.933594 L 16.90625 13.933594 L 19.136719 38.828125 L 37.636719 38.828125 L 37.636719 30.597656 L 26.695312 30.597656 L 25.941406 22.167969 L 37.636719 22.167969 L 37.636719 13.933594 Z M 37.636719 51.949219 L 37.601562 51.957031 L 28.394531 49.484375 L 27.808594 42.917969 L 19.503906 42.917969 L 20.664062 55.84375 L 37.597656 60.503906 L 37.636719 60.492188 Z M 37.636719 51.949219 " fill-opacity="1" fill-rule="nonzero"/><path fill="#090909" d="M 37.609375 38.828125 L 47.789062 38.828125 L 46.851562 49.5 L 37.632812 51.980469 L 37.632812 60.542969 L 54.582031 55.867188 L 56.851562 30.59375 L 37.636719 30.59375 Z M 58.121094 16.144531 L 58.316406 13.933594 L 37.605469 13.933594 L 37.605469 22.164062 L 57.570312 22.164062 L 57.734375 20.316406 Z M 58.121094 16.144531 " fill-opacity="1" fill-rule="nonzero"/></svg>