<svg xmlns="http://www.w3.org/2000/svg" xmlns:xlink="http://www.w3.org/1999/xlink" width="100" zoomAndPan="magnify" viewBox="0 0 75 74.999997" height="100" preserveAspectRatio="xMidYMid meet" version="1.0"><path fill="#ffffff" d="M 64.34375 42.105469 C 61.75 42.117188 59.503906 42.742188 57.617188 43.671875 C 56.929688 42.296875 56.230469 41.085938 56.113281 40.1875 C 55.976562 39.136719 55.820312 38.507812 55.984375 37.257812 C 56.148438 36.007812 56.875 34.234375 56.863281 34.101562 C 56.851562 33.96875 56.699219 33.332031 55.203125 33.320312 C 53.707031 33.3125 52.425781 33.609375 52.273438 34.003906 C 52.125 34.398438 51.835938 35.289062 51.65625 36.21875 C 51.394531 37.574219 48.671875 42.414062 47.121094 44.945312 C 46.613281 43.957031 46.183594 43.085938 46.09375 42.398438 C 45.957031 41.347656 45.800781 40.722656 45.964844 39.46875 C 46.128906 38.21875 46.855469 36.449219 46.84375 36.316406 C 46.832031 36.183594 46.679688 35.546875 45.183594 35.535156 C 43.6875 35.523438 42.40625 35.820312 42.253906 36.21875 C 42.105469 36.613281 41.945312 37.535156 41.636719 38.429688 C 41.332031 39.324219 37.707031 47.394531 36.757812 49.488281 C 36.273438 50.554688 35.855469 51.410156 35.558594 51.996094 C 35.554688 51.996094 35.554688 51.992188 35.554688 51.992188 C 35.554688 51.992188 35.539062 52.03125 35.507812 52.097656 C 35.253906 52.59375 35.101562 52.871094 35.101562 52.871094 C 35.101562 52.871094 35.101562 52.875 35.105469 52.882812 C 34.902344 53.246094 34.6875 53.585938 34.582031 53.585938 C 34.507812 53.585938 34.355469 52.613281 34.613281 51.277344 C 35.152344 48.476562 36.449219 44.109375 36.433594 43.960938 C 36.429688 43.882812 36.675781 43.121094 35.589844 42.722656 C 34.535156 42.335938 34.15625 42.980469 34.058594 42.984375 C 33.964844 42.984375 33.894531 43.210938 33.894531 43.210938 C 33.894531 43.210938 35.074219 38.296875 31.652344 38.296875 C 29.511719 38.296875 26.550781 40.640625 25.089844 42.757812 C 24.167969 43.261719 22.195312 44.335938 20.105469 45.488281 C 19.300781 45.925781 18.480469 46.378906 17.703125 46.808594 C 17.648438 46.75 17.597656 46.691406 17.542969 46.632812 C 13.394531 42.207031 5.726562 39.078125 6.050781 33.128906 C 6.171875 30.964844 6.921875 25.269531 20.789062 18.359375 C 32.144531 12.699219 41.238281 14.257812 42.808594 17.710938 C 45.054688 22.640625 37.949219 31.804688 26.15625 33.128906 C 21.660156 33.628906 19.296875 31.890625 18.707031 31.238281 C 18.085938 30.558594 17.996094 30.527344 17.761719 30.65625 C 17.386719 30.863281 17.625 31.46875 17.761719 31.828125 C 18.113281 32.742188 19.558594 34.367188 22.023438 35.175781 C 24.191406 35.886719 29.46875 36.277344 35.847656 33.808594 C 42.996094 31.046875 48.574219 23.355469 46.9375 16.929688 C 45.269531 10.390625 34.429688 8.242188 24.171875 11.886719 C 18.066406 14.054688 11.457031 17.460938 6.707031 21.902344 C 1.054688 27.191406 0.15625 31.789062 0.527344 33.710938 C 1.847656 40.539062 11.257812 44.988281 15.027344 48.285156 C 14.84375 48.386719 14.667969 48.484375 14.507812 48.570312 C 12.617188 49.503906 5.445312 53.261719 3.648438 57.226562 C 1.613281 61.726562 3.972656 64.957031 5.535156 65.394531 C 10.375 66.738281 15.34375 64.316406 18.015625 60.335938 C 20.683594 56.355469 20.355469 51.171875 19.132812 48.804688 C 19.117188 48.773438 19.097656 48.746094 19.085938 48.714844 C 19.574219 48.425781 20.070312 48.132812 20.5625 47.84375 C 21.523438 47.28125 22.46875 46.753906 23.289062 46.304688 C 22.832031 47.5625 22.496094 49.066406 22.320312 51.242188 C 22.113281 53.796875 23.160156 57.101562 24.53125 58.398438 C 25.136719 58.972656 25.859375 58.984375 26.320312 58.984375 C 27.914062 58.984375 28.644531 57.660156 29.445312 56.089844 C 30.425781 54.164062 31.296875 51.925781 31.296875 51.925781 C 31.296875 51.925781 30.203125 57.976562 33.183594 57.976562 C 34.269531 57.976562 35.363281 56.566406 35.851562 55.851562 C 35.851562 55.859375 35.851562 55.863281 35.851562 55.863281 C 35.851562 55.863281 35.878906 55.816406 35.933594 55.722656 C 36.046875 55.550781 36.113281 55.4375 36.113281 55.4375 C 36.113281 55.4375 36.113281 55.425781 36.117188 55.40625 C 36.554688 54.652344 37.523438 52.921875 38.972656 50.070312 C 40.851562 46.390625 42.648438 41.777344 42.648438 41.777344 C 42.648438 41.777344 42.816406 42.90625 43.363281 44.769531 C 43.6875 45.867188 44.371094 47.078125 44.914062 48.242188 C 44.476562 48.847656 44.210938 49.191406 44.210938 49.191406 C 44.210938 49.191406 44.214844 49.199219 44.21875 49.210938 C 43.871094 49.671875 43.480469 50.167969 43.074219 50.65625 C 41.59375 52.421875 39.828125 54.433594 39.59375 55.015625 C 39.3125 55.699219 39.378906 56.207031 39.917969 56.609375 C 40.308594 56.90625 41.007812 56.949219 41.738281 56.902344 C 43.070312 56.8125 44.007812 56.480469 44.46875 56.28125 C 45.1875 56.027344 46.027344 55.625 46.8125 55.046875 C 48.265625 53.980469 49.140625 52.453125 49.058594 50.429688 C 49.011719 49.3125 48.65625 48.207031 48.207031 47.164062 C 48.339844 46.972656 48.472656 46.785156 48.601562 46.589844 C 50.894531 43.242188 52.667969 39.5625 52.667969 39.5625 C 52.667969 39.5625 52.835938 40.691406 53.382812 42.554688 C 53.660156 43.5 54.210938 44.527344 54.699219 45.539062 C 52.546875 47.289062 51.214844 49.320312 50.75 50.652344 C 49.890625 53.121094 50.5625 54.238281 51.820312 54.492188 C 52.390625 54.609375 53.199219 54.347656 53.804688 54.089844 C 54.558594 53.839844 55.464844 53.421875 56.3125 52.800781 C 57.761719 51.734375 59.160156 50.238281 59.074219 48.214844 C 59.035156 47.292969 58.789062 46.378906 58.449219 45.5 C 60.273438 44.738281 62.636719 44.316406 65.648438 44.667969 C 72.105469 45.421875 73.371094 49.453125 73.128906 51.140625 C 72.886719 52.828125 71.53125 53.753906 71.078125 54.035156 C 70.625 54.316406 70.488281 54.414062 70.527344 54.621094 C 70.582031 54.921875 70.792969 54.910156 71.175781 54.847656 C 71.710938 54.757812 74.566406 53.476562 74.691406 50.359375 C 74.84375 46.414062 71.054688 42.070312 64.34375 42.105469 Z M 14.578125 58.882812 C 12.441406 61.214844 9.453125 62.097656 8.167969 61.355469 C 6.785156 60.554688 7.332031 57.117188 9.957031 54.644531 C 11.558594 53.132812 13.625 51.746094 14.992188 50.886719 C 15.304688 50.699219 15.761719 50.425781 16.320312 50.089844 C 16.410156 50.039062 16.464844 50.007812 16.464844 50.007812 L 16.460938 50.007812 C 16.570312 49.941406 16.679688 49.875 16.792969 49.808594 C 17.75 53.332031 16.824219 56.433594 14.578125 58.882812 Z M 30.15625 48.292969 C 29.414062 50.105469 27.851562 54.753906 26.90625 54.503906 C 26.089844 54.289062 25.59375 50.757812 26.742188 47.28125 C 27.320312 45.535156 28.554688 43.445312 29.277344 42.632812 C 30.445312 41.328125 31.730469 40.898438 32.042969 41.429688 C 32.441406 42.101562 30.625 47.152344 30.15625 48.292969 Z M 43.03125 54.433594 C 42.714844 54.597656 42.425781 54.703125 42.292969 54.621094 C 42.191406 54.5625 42.421875 54.347656 42.421875 54.347656 C 42.421875 54.347656 44.03125 52.613281 44.667969 51.824219 C 45.035156 51.367188 45.464844 50.820312 45.929688 50.210938 C 45.933594 50.273438 45.933594 50.335938 45.933594 50.394531 C 45.929688 52.46875 43.925781 53.871094 43.03125 54.433594 Z M 52.949219 52.171875 C 52.710938 52.003906 52.75 51.460938 53.523438 49.777344 C 53.828125 49.113281 54.523438 47.996094 55.730469 46.929688 C 55.871094 47.371094 55.957031 47.789062 55.953125 48.179688 C 55.9375 50.792969 54.074219 51.769531 52.949219 52.171875 Z M 52.949219 52.171875 " fill-opacity="1" fill-rule="nonzero"/></svg>