<svg xmlns="http://www.w3.org/2000/svg" xmlns:xlink="http://www.w3.org/1999/xlink" width="100" zoomAndPan="magnify" viewBox="0 0 75 74.999997" height="100" preserveAspectRatio="xMidYMid meet" version="1.0"><path fill="#ffffff" d="M 73.214844 0 L 1.785156 0 C 0.796875 0 0 0.800781 0 1.785156 L 0 73.214844 C 0 74.199219 0.796875 75 1.785156 75 L 73.214844 75 C 74.203125 75 75 74.199219 75 73.214844 L 75 1.785156 C 75 0.800781 74.203125 0 73.214844 0 Z M 44.644531 40.082031 L 35.714844 40.082031 L 35.714844 67.855469 L 28.570312 67.855469 L 28.570312 40.082031 L 19.644531 40.082031 L 19.644531 33.929688 L 44.644531 33.929688 Z M 46.644531 66.269531 L 46.644531 58.847656 C 46.644531 58.847656 50.699219 61.902344 55.566406 61.902344 C 60.433594 61.902344 60.246094 58.722656 60.246094 58.285156 C 60.246094 53.667969 46.457031 53.667969 46.457031 43.4375 C 46.457031 29.523438 66.546875 35.015625 66.546875 35.015625 L 66.296875 41.628906 C 66.296875 41.628906 62.925781 39.382812 59.121094 39.382812 C 55.316406 39.382812 53.941406 41.191406 53.941406 43.125 C 53.941406 48.117188 67.855469 47.617188 67.855469 57.664062 C 67.855469 73.132812 46.644531 66.269531 46.644531 66.269531 Z M 46.644531 66.269531 " fill-opacity="1" fill-rule="nonzero"/></svg>