<svg xmlns="http://www.w3.org/2000/svg" xmlns:xlink="http://www.w3.org/1999/xlink" width="100" zoomAndPan="magnify" viewBox="0 0 75 74.999997" height="100" preserveAspectRatio="xMidYMid meet" version="1.0"><path fill="#ffffff" d="M 72.335938 8.089844 L 56.90625 0.667969 C 56.035156 0.242188 55.050781 0.105469 54.09375 0.265625 C 53.140625 0.425781 52.257812 0.882812 51.574219 1.570312 L 22.023438 28.53125 L 9.144531 18.765625 C 8.5625 18.324219 7.847656 18.097656 7.117188 18.128906 C 6.386719 18.160156 5.691406 18.445312 5.152344 18.9375 L 1.027344 22.695312 C 0.703125 22.988281 0.445312 23.34375 0.269531 23.742188 C 0.09375 24.136719 0 24.566406 0 25 C 0 25.4375 0.0898438 25.867188 0.261719 26.265625 C 0.4375 26.660156 0.695312 27.019531 1.015625 27.3125 L 12.183594 37.503906 L 1.015625 47.695312 C 0.695312 47.988281 0.4375 48.347656 0.261719 48.746094 C 0.0898438 49.140625 0 49.570312 0 50.007812 C 0 50.441406 0.09375 50.871094 0.269531 51.265625 C 0.445312 51.664062 0.703125 52.019531 1.027344 52.3125 L 5.152344 56.070312 C 5.691406 56.5625 6.386719 56.847656 7.117188 56.878906 C 7.847656 56.910156 8.5625 56.683594 9.144531 56.242188 L 22.023438 46.464844 L 51.585938 73.441406 C 52.269531 74.125 53.148438 74.582031 54.101562 74.742188 C 55.058594 74.90625 56.039062 74.765625 56.910156 74.34375 L 72.351562 66.90625 C 73.148438 66.527344 73.816406 65.925781 74.285156 65.179688 C 74.753906 64.429688 75.003906 63.566406 75 62.683594 L 75 12.308594 C 75 10.511719 73.960938 8.863281 72.339844 8.085938 Z M 56.257812 54.535156 L 33.820312 37.507812 L 56.257812 20.476562 Z M 56.257812 54.535156 " fill-opacity="1" fill-rule="nonzero"/></svg>