<svg xmlns="http://www.w3.org/2000/svg" xmlns:xlink="http://www.w3.org/1999/xlink" width="1080" zoomAndPan="magnify" viewBox="0 0 810 809.999993" height="1080" preserveAspectRatio="xMidYMid meet" version="1.0"><defs><clipPath id="10d07be7e0"><path d="M 0 217.304688 L 809 217.304688 L 809 593 L 0 593 Z M 0 217.304688 " clip-rule="nonzero"/></clipPath><clipPath id="c27c605252"><path d="M 38.25 217.304688 L 771.75 217.304688 C 781.894531 217.304688 791.625 221.332031 798.796875 228.507812 C 805.96875 235.679688 810 245.410156 810 255.554688 L 810 554.445312 C 810 564.589844 805.96875 574.320312 798.796875 581.492188 C 791.625 588.667969 781.894531 592.695312 771.75 592.695312 L 38.25 592.695312 C 28.105469 592.695312 18.375 588.667969 11.203125 581.492188 C 4.03125 574.320312 0 564.589844 0 554.445312 L 0 255.554688 C 0 245.410156 4.03125 235.679688 11.203125 228.507812 C 18.375 221.332031 28.105469 217.304688 38.25 217.304688 " clip-rule="nonzero"/></clipPath></defs><g clip-path="url(#10d07be7e0)"><g clip-path="url(#c27c605252)"><path fill="#ffffff" d="M 0 217.304688 L 808.378906 217.304688 L 808.378906 594.246094 L 0 594.246094 Z M 0 217.304688 " fill-opacity="1" fill-rule="nonzero"/></g></g></svg>